{
	"asset":{
		"generator":"Khronos glTF Blender I/O v4.2.69",
		"version":"2.0"
	},
	"scene":0,
	"scenes":[
		{
			"name":"Scene",
			"nodes":[
				0
			]
		}
	],
	"nodes":[
		{
			"mesh":0,
			"name":"Cylinder",
			"rotation":[
				0.7071068286895752,
				0,
				0,
				0.7071068286895752
			],
			"scale":[
				0.019060784950852394,
				0.01158100925385952,
				0.01906079240143299
			]
		}
	],
	"meshes":[
		{
			"name":"Cylinder",
			"primitives":[
				{
					"attributes":{
						"POSITION":0,
						"NORMAL":1,
						"TEXCOORD_0":2
					},
					"indices":3
				}
			]
		}
	],
	"accessors":[
		{
			"bufferView":0,
			"componentType":5126,
			"count":626,
			"max":[
				2.423078775405884,
				0.483425110578537,
				1.6272048950195312
			],
			"min":[
				-1.558245062828064,
				-0.48502910137176514,
				-1.5490859746932983
			],
			"type":"VEC3"
		},
		{
			"bufferView":1,
			"componentType":5126,
			"count":626,
			"type":"VEC3"
		},
		{
			"bufferView":2,
			"componentType":5126,
			"count":626,
			"type":"VEC2"
		},
		{
			"bufferView":3,
			"componentType":5123,
			"count":2124,
			"type":"SCALAR"
		}
	],
	"bufferViews":[
		{
			"buffer":0,
			"byteLength":7512,
			"byteOffset":0,
			"target":34962
		},
		{
			"buffer":0,
			"byteLength":7512,
			"byteOffset":7512,
			"target":34962
		},
		{
			"buffer":0,
			"byteLength":5008,
			"byteOffset":15024,
			"target":34962
		},
		{
			"buffer":0,
			"byteLength":4248,
			"byteOffset":20032,
			"target":34963
		}
	],
	"buffers":[
		{
			"byteLength":24280,
			"uri":"reconers_sharp_3D_join_noAnimation_noUV_noImgMaterial.bin"
		}
	]
}
