<svg width="190" height="26" viewBox="0 0 190 26" fill="none" xmlns="http://www.w3.org/2000/svg">
<g clip-path="url(#clip0_8589_136)">
<path d="M189.612 3.71828C189.612 4.35559 189.413 4.97862 189.04 5.50859C188.667 6.03856 188.137 6.45165 187.516 6.69561C186.896 6.93956 186.213 7.00343 185.555 6.87913C184.896 6.75483 184.291 6.44796 183.816 5.99731C183.341 5.54666 183.018 4.9725 182.887 4.34743C182.756 3.72236 182.823 3.07446 183.08 2.4857C183.337 1.89693 183.773 1.39373 184.331 1.03975C184.889 0.685775 185.546 0.496921 186.218 0.49707C187.118 0.497472 187.981 0.836969 188.617 1.44098C189.254 2.04498 189.612 2.86409 189.612 3.71828Z" fill="white"/>
<path d="M14.6188 7.67402V16.3346H18.6902V3.80811H0V23.2271H4.07143V7.67402H14.6188Z" fill="white"/>
<path d="M7.0874 13.0469L14.8718 23.2264H19.7128L11.9316 13.0469H7.0874Z" fill="white"/>
<path d="M151.68 7.67402V16.3346H155.751V3.80811H137.06V23.2271H141.132V7.67402H151.68Z" fill="white"/>
<path d="M144.15 13.0469L151.935 23.2264H156.777L148.994 13.0469H144.15Z" fill="white"/>
<path d="M23.0684 3.80811V23.2271H41.0952V19.3634H27.143V15.4536H41.0952V11.5899H27.143V7.68083H41.0952V3.8172H23.0684V3.80811Z" fill="white"/>
<path d="M114.657 3.80811V23.2271H132.684V19.3634H118.73V15.4536H132.681V11.5899H118.73V7.67932H132.684V3.81569H114.657V3.80811Z" fill="white"/>
<path d="M160.129 3.80811V15.4513H178.156V11.5877H164.202V7.67857H178.156V3.81493H160.129V3.80811Z" fill="white"/>
<path d="M178.156 19.3613H160.129V23.228H178.156V19.3613Z" fill="white"/>
<path d="M45.4697 3.80811V23.2271H64.1504V19.3634H49.5412V7.67402H64.1504V3.81038H45.4697V3.80811Z" fill="white"/>
<path d="M106.204 17.4922L95.6666 3.80887H91.5952V23.2278H95.6666V9.54371L106.204 23.2271H110.276V3.80811H106.204V17.4922Z" fill="white"/>
<path d="M72.6085 3.80811H68.5371V23.2271H87.2178V3.80811H72.6085ZM83.1464 19.3604H72.6085V7.67478H83.1464V19.3604Z" fill="white"/>
</g>
<defs>
<clipPath id="clip0_8589_136">
<rect width="190" height="25" fill="white" transform="translate(0 0.5)"/>
</clipPath>
</defs>
</svg>
